<mxfile host="65bd71144e" pages="2">
    <diagram id="B5FKCXFkGyoR0_Crlwwg" name="Page-1">
        <mxGraphModel dx="1122" dy="877" grid="1" gridSize="10" guides="1" tooltips="1" connect="1" arrows="1" fold="1" page="1" pageScale="1" pageWidth="827" pageHeight="1169" math="0" shadow="0">
            <root>
                <mxCell id="0"/>
                <mxCell id="1" parent="0"/>
                <mxCell id="CMDsCHogCMOUHDIitvif-1" value="MedicalApp" style="shape=module;align=left;spacingLeft=20;align=center;verticalAlign=top;" parent="1" vertex="1">
                    <mxGeometry x="70" y="100" width="400" height="480" as="geometry"/>
                </mxCell>
                <mxCell id="CMDsCHogCMOUHDIitvif-12" style="edgeStyle=orthogonalEdgeStyle;rounded=0;orthogonalLoop=1;jettySize=auto;html=1;entryX=1;entryY=0.5;entryDx=0;entryDy=0;entryPerimeter=0;endArrow=none;endFill=0;" parent="1" source="CMDsCHogCMOUHDIitvif-2" target="CMDsCHogCMOUHDIitvif-10" edge="1">
                    <mxGeometry relative="1" as="geometry">
                        <Array as="points">
                            <mxPoint x="273" y="350"/>
                            <mxPoint x="170" y="350"/>
                        </Array>
                    </mxGeometry>
                </mxCell>
                <mxCell id="CMDsCHogCMOUHDIitvif-13" style="edgeStyle=orthogonalEdgeStyle;rounded=0;orthogonalLoop=1;jettySize=auto;html=1;entryX=1;entryY=0.5;entryDx=0;entryDy=0;entryPerimeter=0;endArrow=none;endFill=0;" parent="1" source="CMDsCHogCMOUHDIitvif-2" target="CMDsCHogCMOUHDIitvif-11" edge="1">
                    <mxGeometry relative="1" as="geometry">
                        <Array as="points">
                            <mxPoint x="273" y="350"/>
                            <mxPoint x="375" y="350"/>
                        </Array>
                    </mxGeometry>
                </mxCell>
                <mxCell id="CMDsCHogCMOUHDIitvif-20" style="edgeStyle=orthogonalEdgeStyle;rounded=0;orthogonalLoop=1;jettySize=auto;html=1;entryX=1;entryY=0.5;entryDx=0;entryDy=0;entryPerimeter=0;endArrow=none;endFill=0;" parent="1" source="CMDsCHogCMOUHDIitvif-2" target="CMDsCHogCMOUHDIitvif-19" edge="1">
                    <mxGeometry relative="1" as="geometry"/>
                </mxCell>
                <mxCell id="CMDsCHogCMOUHDIitvif-2" value="ProcessController" style="shape=module;align=left;spacingLeft=20;align=center;verticalAlign=top;" parent="1" vertex="1">
                    <mxGeometry x="205" y="270" width="135" height="50" as="geometry"/>
                </mxCell>
                <mxCell id="CMDsCHogCMOUHDIitvif-3" value="Camera" style="shape=module;align=left;spacingLeft=20;align=center;verticalAlign=top;" parent="1" vertex="1">
                    <mxGeometry x="95" y="490" width="150" height="50" as="geometry"/>
                </mxCell>
                <mxCell id="CMDsCHogCMOUHDIitvif-4" value="Machine-Learning" style="shape=module;align=left;spacingLeft=20;align=center;verticalAlign=top;fillColor=#f8cecc;strokeColor=#b85450;" parent="1" vertex="1">
                    <mxGeometry x="300" y="490" width="150" height="50" as="geometry"/>
                </mxCell>
                <mxCell id="CMDsCHogCMOUHDIitvif-5" value="HospitalInformationSystem" style="shape=module;align=left;spacingLeft=20;align=center;verticalAlign=top;" parent="1" vertex="1">
                    <mxGeometry x="510" y="420" width="250" height="160" as="geometry"/>
                </mxCell>
                <mxCell id="CMDsCHogCMOUHDIitvif-8" style="edgeStyle=orthogonalEdgeStyle;rounded=0;orthogonalLoop=1;jettySize=auto;html=1;entryX=0;entryY=0.5;entryDx=0;entryDy=0;entryPerimeter=0;endArrow=none;endFill=0;" parent="1" source="CMDsCHogCMOUHDIitvif-6" target="CMDsCHogCMOUHDIitvif-7" edge="1">
                    <mxGeometry relative="1" as="geometry"/>
                </mxCell>
                <mxCell id="CMDsCHogCMOUHDIitvif-6" value="UI" style="shape=module;align=left;spacingLeft=20;align=center;verticalAlign=top;" parent="1" vertex="1">
                    <mxGeometry x="205" y="140" width="135" height="50" as="geometry"/>
                </mxCell>
                <mxCell id="CMDsCHogCMOUHDIitvif-9" style="edgeStyle=orthogonalEdgeStyle;rounded=0;orthogonalLoop=1;jettySize=auto;html=1;entryX=0.5;entryY=0;entryDx=0;entryDy=0;endArrow=none;endFill=0;" parent="1" source="CMDsCHogCMOUHDIitvif-7" target="CMDsCHogCMOUHDIitvif-2" edge="1">
                    <mxGeometry relative="1" as="geometry"/>
                </mxCell>
                <mxCell id="CMDsCHogCMOUHDIitvif-7" value="" style="shape=providedRequiredInterface;html=1;verticalLabelPosition=bottom;rotation=90;" parent="1" vertex="1">
                    <mxGeometry x="262.5" y="220" width="20" height="20" as="geometry"/>
                </mxCell>
                <mxCell id="CMDsCHogCMOUHDIitvif-14" style="edgeStyle=orthogonalEdgeStyle;rounded=0;orthogonalLoop=1;jettySize=auto;html=1;entryX=0.5;entryY=0;entryDx=0;entryDy=0;endArrow=none;endFill=0;" parent="1" source="CMDsCHogCMOUHDIitvif-10" target="CMDsCHogCMOUHDIitvif-3" edge="1">
                    <mxGeometry relative="1" as="geometry"/>
                </mxCell>
                <mxCell id="CMDsCHogCMOUHDIitvif-10" value="" style="shape=providedRequiredInterface;html=1;verticalLabelPosition=bottom;rotation=-90;" parent="1" vertex="1">
                    <mxGeometry x="160" y="410" width="20" height="20" as="geometry"/>
                </mxCell>
                <mxCell id="CMDsCHogCMOUHDIitvif-15" style="edgeStyle=orthogonalEdgeStyle;rounded=0;orthogonalLoop=1;jettySize=auto;html=1;entryX=0.5;entryY=0;entryDx=0;entryDy=0;endArrow=none;endFill=0;" parent="1" source="CMDsCHogCMOUHDIitvif-11" target="CMDsCHogCMOUHDIitvif-4" edge="1">
                    <mxGeometry relative="1" as="geometry"/>
                </mxCell>
                <mxCell id="CMDsCHogCMOUHDIitvif-11" value="" style="shape=providedRequiredInterface;html=1;verticalLabelPosition=bottom;rotation=-90;" parent="1" vertex="1">
                    <mxGeometry x="365" y="410" width="20" height="20" as="geometry"/>
                </mxCell>
                <mxCell id="CMDsCHogCMOUHDIitvif-16" value="Visualization" style="text;align=center;fontStyle=0;verticalAlign=middle;spacingLeft=3;spacingRight=3;strokeColor=none;rotatable=0;points=[[0,0.5],[1,0.5]];portConstraint=eastwest;" parent="1" vertex="1">
                    <mxGeometry x="230" y="240" width="80" height="26" as="geometry"/>
                </mxCell>
                <mxCell id="CMDsCHogCMOUHDIitvif-17" value="Image" style="text;align=center;fontStyle=0;verticalAlign=middle;spacingLeft=3;spacingRight=3;strokeColor=none;rotatable=0;points=[[0,0.5],[1,0.5]];portConstraint=eastwest;" parent="1" vertex="1">
                    <mxGeometry x="130" y="430" width="80" height="26" as="geometry"/>
                </mxCell>
                <mxCell id="CMDsCHogCMOUHDIitvif-18" value="Classification" style="text;align=center;fontStyle=0;verticalAlign=middle;spacingLeft=3;spacingRight=3;strokeColor=none;rotatable=0;points=[[0,0.5],[1,0.5]];portConstraint=eastwest;" parent="1" vertex="1">
                    <mxGeometry x="340" y="430" width="80" height="26" as="geometry"/>
                </mxCell>
                <mxCell id="CMDsCHogCMOUHDIitvif-21" style="edgeStyle=orthogonalEdgeStyle;rounded=0;orthogonalLoop=1;jettySize=auto;html=1;entryX=0.5;entryY=0;entryDx=0;entryDy=0;endArrow=none;endFill=0;" parent="1" source="CMDsCHogCMOUHDIitvif-19" target="CMDsCHogCMOUHDIitvif-5" edge="1">
                    <mxGeometry relative="1" as="geometry"/>
                </mxCell>
                <mxCell id="CMDsCHogCMOUHDIitvif-19" value="" style="shape=providedRequiredInterface;html=1;verticalLabelPosition=bottom;rotation=-90;" parent="1" vertex="1">
                    <mxGeometry x="625" y="320" width="20" height="20" as="geometry"/>
                </mxCell>
                <mxCell id="CMDsCHogCMOUHDIitvif-22" value="ElectronicHealthRecords" style="text;align=center;fontStyle=0;verticalAlign=middle;spacingLeft=3;spacingRight=3;strokeColor=none;rotatable=0;points=[[0,0.5],[1,0.5]];portConstraint=eastwest;" parent="1" vertex="1">
                    <mxGeometry x="595" y="340" width="80" height="26" as="geometry"/>
                </mxCell>
            </root>
        </mxGraphModel>
    </diagram>
    <diagram id="8oqBVqHIeyNooyLVaiBM" name="Page-2">
        <mxGraphModel dx="1402" dy="1096" grid="1" gridSize="10" guides="1" tooltips="1" connect="1" arrows="1" fold="1" page="1" pageScale="1" pageWidth="827" pageHeight="1169" math="0" shadow="0">
            <root>
                <mxCell id="0"/>
                <mxCell id="1" parent="0"/>
                <mxCell id="PZljR-ChbD5WToFiUhOe-1" value="MedicalApp" style="shape=module;align=left;spacingLeft=20;align=center;verticalAlign=top;" parent="1" vertex="1">
                    <mxGeometry x="70" y="100" width="400" height="480" as="geometry"/>
                </mxCell>
                <mxCell id="PZljR-ChbD5WToFiUhOe-2" style="edgeStyle=orthogonalEdgeStyle;rounded=0;orthogonalLoop=1;jettySize=auto;html=1;entryX=1;entryY=0.5;entryDx=0;entryDy=0;entryPerimeter=0;endArrow=none;endFill=0;" parent="1" source="PZljR-ChbD5WToFiUhOe-5" target="PZljR-ChbD5WToFiUhOe-14" edge="1">
                    <mxGeometry relative="1" as="geometry">
                        <Array as="points">
                            <mxPoint x="273" y="350"/>
                            <mxPoint x="170" y="350"/>
                        </Array>
                    </mxGeometry>
                </mxCell>
                <mxCell id="PZljR-ChbD5WToFiUhOe-3" style="edgeStyle=orthogonalEdgeStyle;rounded=0;orthogonalLoop=1;jettySize=auto;html=1;entryX=1;entryY=0.5;entryDx=0;entryDy=0;entryPerimeter=0;endArrow=none;endFill=0;" parent="1" source="PZljR-ChbD5WToFiUhOe-5" target="PZljR-ChbD5WToFiUhOe-16" edge="1">
                    <mxGeometry relative="1" as="geometry">
                        <Array as="points">
                            <mxPoint x="273" y="350"/>
                            <mxPoint x="375" y="350"/>
                        </Array>
                    </mxGeometry>
                </mxCell>
                <mxCell id="PZljR-ChbD5WToFiUhOe-4" style="edgeStyle=orthogonalEdgeStyle;rounded=0;orthogonalLoop=1;jettySize=auto;html=1;entryX=1;entryY=0.5;entryDx=0;entryDy=0;entryPerimeter=0;endArrow=none;endFill=0;" parent="1" source="PZljR-ChbD5WToFiUhOe-5" target="PZljR-ChbD5WToFiUhOe-21" edge="1">
                    <mxGeometry relative="1" as="geometry"/>
                </mxCell>
                <mxCell id="PZljR-ChbD5WToFiUhOe-5" value="ProcessController" style="shape=module;align=left;spacingLeft=20;align=center;verticalAlign=top;" parent="1" vertex="1">
                    <mxGeometry x="205" y="270" width="135" height="50" as="geometry"/>
                </mxCell>
                <mxCell id="PZljR-ChbD5WToFiUhOe-6" value="Camera" style="shape=module;align=left;spacingLeft=20;align=center;verticalAlign=top;" parent="1" vertex="1">
                    <mxGeometry x="95" y="490" width="150" height="50" as="geometry"/>
                </mxCell>
                <mxCell id="PZljR-ChbD5WToFiUhOe-7" value="Machine-Learning" style="shape=module;align=left;spacingLeft=20;align=center;verticalAlign=top;fillColor=#f8cecc;strokeColor=#b85450;" parent="1" vertex="1">
                    <mxGeometry x="300" y="490" width="150" height="50" as="geometry"/>
                </mxCell>
                <mxCell id="PZljR-ChbD5WToFiUhOe-8" value="HospitalInformationSystem" style="shape=module;align=left;spacingLeft=20;align=center;verticalAlign=top;" parent="1" vertex="1">
                    <mxGeometry x="510" y="420" width="250" height="160" as="geometry"/>
                </mxCell>
                <mxCell id="PZljR-ChbD5WToFiUhOe-9" style="edgeStyle=orthogonalEdgeStyle;rounded=0;orthogonalLoop=1;jettySize=auto;html=1;entryX=0;entryY=0.5;entryDx=0;entryDy=0;entryPerimeter=0;endArrow=none;endFill=0;" parent="1" source="PZljR-ChbD5WToFiUhOe-10" target="PZljR-ChbD5WToFiUhOe-12" edge="1">
                    <mxGeometry relative="1" as="geometry"/>
                </mxCell>
                <mxCell id="PZljR-ChbD5WToFiUhOe-10" value="UI" style="shape=module;align=left;spacingLeft=20;align=center;verticalAlign=top;" parent="1" vertex="1">
                    <mxGeometry x="205" y="140" width="135" height="50" as="geometry"/>
                </mxCell>
                <mxCell id="PZljR-ChbD5WToFiUhOe-11" style="edgeStyle=orthogonalEdgeStyle;rounded=0;orthogonalLoop=1;jettySize=auto;html=1;entryX=0.5;entryY=0;entryDx=0;entryDy=0;endArrow=none;endFill=0;" parent="1" source="PZljR-ChbD5WToFiUhOe-12" target="PZljR-ChbD5WToFiUhOe-5" edge="1">
                    <mxGeometry relative="1" as="geometry"/>
                </mxCell>
                <mxCell id="PZljR-ChbD5WToFiUhOe-12" value="" style="shape=providedRequiredInterface;html=1;verticalLabelPosition=bottom;rotation=90;" parent="1" vertex="1">
                    <mxGeometry x="262.5" y="220" width="20" height="20" as="geometry"/>
                </mxCell>
                <mxCell id="PZljR-ChbD5WToFiUhOe-13" style="edgeStyle=orthogonalEdgeStyle;rounded=0;orthogonalLoop=1;jettySize=auto;html=1;entryX=0.5;entryY=0;entryDx=0;entryDy=0;endArrow=none;endFill=0;" parent="1" source="PZljR-ChbD5WToFiUhOe-14" target="PZljR-ChbD5WToFiUhOe-6" edge="1">
                    <mxGeometry relative="1" as="geometry"/>
                </mxCell>
                <mxCell id="PZljR-ChbD5WToFiUhOe-14" value="" style="shape=providedRequiredInterface;html=1;verticalLabelPosition=bottom;rotation=-90;" parent="1" vertex="1">
                    <mxGeometry x="160" y="410" width="20" height="20" as="geometry"/>
                </mxCell>
                <mxCell id="PZljR-ChbD5WToFiUhOe-15" style="edgeStyle=orthogonalEdgeStyle;rounded=0;orthogonalLoop=1;jettySize=auto;html=1;entryX=0.5;entryY=0;entryDx=0;entryDy=0;endArrow=none;endFill=0;" parent="1" source="PZljR-ChbD5WToFiUhOe-16" target="PZljR-ChbD5WToFiUhOe-7" edge="1">
                    <mxGeometry relative="1" as="geometry"/>
                </mxCell>
                <mxCell id="PZljR-ChbD5WToFiUhOe-16" value="" style="shape=providedRequiredInterface;html=1;verticalLabelPosition=bottom;rotation=-90;" parent="1" vertex="1">
                    <mxGeometry x="365" y="410" width="20" height="20" as="geometry"/>
                </mxCell>
                <mxCell id="PZljR-ChbD5WToFiUhOe-17" value="Visualization" style="text;align=center;fontStyle=0;verticalAlign=middle;spacingLeft=3;spacingRight=3;strokeColor=none;rotatable=0;points=[[0,0.5],[1,0.5]];portConstraint=eastwest;" parent="1" vertex="1">
                    <mxGeometry x="230" y="240" width="80" height="26" as="geometry"/>
                </mxCell>
                <mxCell id="PZljR-ChbD5WToFiUhOe-18" value="Image" style="text;align=center;fontStyle=0;verticalAlign=middle;spacingLeft=3;spacingRight=3;strokeColor=none;rotatable=0;points=[[0,0.5],[1,0.5]];portConstraint=eastwest;" parent="1" vertex="1">
                    <mxGeometry x="130" y="430" width="80" height="26" as="geometry"/>
                </mxCell>
                <mxCell id="PZljR-ChbD5WToFiUhOe-19" value="Classification" style="text;align=center;fontStyle=0;verticalAlign=middle;spacingLeft=3;spacingRight=3;strokeColor=none;rotatable=0;points=[[0,0.5],[1,0.5]];portConstraint=eastwest;" parent="1" vertex="1">
                    <mxGeometry x="340" y="430" width="80" height="26" as="geometry"/>
                </mxCell>
                <mxCell id="PZljR-ChbD5WToFiUhOe-20" style="edgeStyle=orthogonalEdgeStyle;rounded=0;orthogonalLoop=1;jettySize=auto;html=1;entryX=0.5;entryY=0;entryDx=0;entryDy=0;endArrow=none;endFill=0;" parent="1" source="PZljR-ChbD5WToFiUhOe-21" target="PZljR-ChbD5WToFiUhOe-8" edge="1">
                    <mxGeometry relative="1" as="geometry"/>
                </mxCell>
                <mxCell id="PZljR-ChbD5WToFiUhOe-21" value="" style="shape=providedRequiredInterface;html=1;verticalLabelPosition=bottom;rotation=-90;" parent="1" vertex="1">
                    <mxGeometry x="625" y="320" width="20" height="20" as="geometry"/>
                </mxCell>
                <mxCell id="PZljR-ChbD5WToFiUhOe-22" value="ElectronicHealthRecords" style="text;align=center;fontStyle=0;verticalAlign=middle;spacingLeft=3;spacingRight=3;strokeColor=none;rotatable=0;points=[[0,0.5],[1,0.5]];portConstraint=eastwest;" parent="1" vertex="1">
                    <mxGeometry x="595" y="340" width="80" height="26" as="geometry"/>
                </mxCell>
            </root>
        </mxGraphModel>
    </diagram>
    <diagram id="_MRBAaH0QkNxH5CmCTh8" name="Seite-3">
        <mxGraphModel dx="1402" dy="2265" grid="1" gridSize="10" guides="1" tooltips="1" connect="1" arrows="1" fold="1" page="1" pageScale="1" pageWidth="827" pageHeight="1169" math="0" shadow="0">
            <root>
                <mxCell id="0"/>
                <mxCell id="1" parent="0"/>
                <mxCell id="-FY1NBIczUNaVw4IfBYo-1" value="MedicalApp" style="shape=module;align=left;spacingLeft=20;align=center;verticalAlign=top;" parent="1" vertex="1">
                    <mxGeometry x="70" y="100" width="690" height="110" as="geometry"/>
                </mxCell>
                <mxCell id="-FY1NBIczUNaVw4IfBYo-4" style="edgeStyle=orthogonalEdgeStyle;rounded=0;orthogonalLoop=1;jettySize=auto;html=1;entryX=1;entryY=0.5;entryDx=0;entryDy=0;entryPerimeter=0;endArrow=none;endFill=0;" parent="1" source="-FY1NBIczUNaVw4IfBYo-5" target="-FY1NBIczUNaVw4IfBYo-21" edge="1">
                    <mxGeometry relative="1" as="geometry"/>
                </mxCell>
                <mxCell id="-FY1NBIczUNaVw4IfBYo-5" value="ProcessController" style="shape=module;align=left;spacingLeft=20;align=center;verticalAlign=top;" parent="1" vertex="1">
                    <mxGeometry x="205" y="270" width="135" height="50" as="geometry"/>
                </mxCell>
                <mxCell id="-FY1NBIczUNaVw4IfBYo-8" value="InformationSystem&#10;&lt;&lt;DocCirrus&gt;&gt;&#10;&lt;&lt;HeiCloud&gt;&gt;" style="shape=module;align=left;spacingLeft=20;align=center;verticalAlign=top;" parent="1" vertex="1">
                    <mxGeometry x="510" y="420" width="250" height="160" as="geometry"/>
                </mxCell>
                <mxCell id="-FY1NBIczUNaVw4IfBYo-9" style="edgeStyle=orthogonalEdgeStyle;rounded=0;orthogonalLoop=1;jettySize=auto;html=1;entryX=0;entryY=0.5;entryDx=0;entryDy=0;entryPerimeter=0;endArrow=none;endFill=0;" parent="1" source="-FY1NBIczUNaVw4IfBYo-10" target="-FY1NBIczUNaVw4IfBYo-12" edge="1">
                    <mxGeometry relative="1" as="geometry"/>
                </mxCell>
                <mxCell id="-FY1NBIczUNaVw4IfBYo-10" value="UI" style="shape=module;align=left;spacingLeft=20;align=center;verticalAlign=top;" parent="1" vertex="1">
                    <mxGeometry x="205" y="140" width="135" height="50" as="geometry"/>
                </mxCell>
                <mxCell id="-FY1NBIczUNaVw4IfBYo-11" style="edgeStyle=orthogonalEdgeStyle;rounded=0;orthogonalLoop=1;jettySize=auto;html=1;entryX=0.5;entryY=0;entryDx=0;entryDy=0;endArrow=none;endFill=0;" parent="1" source="-FY1NBIczUNaVw4IfBYo-12" target="-FY1NBIczUNaVw4IfBYo-5" edge="1">
                    <mxGeometry relative="1" as="geometry"/>
                </mxCell>
                <mxCell id="-FY1NBIczUNaVw4IfBYo-12" value="" style="shape=providedRequiredInterface;html=1;verticalLabelPosition=bottom;rotation=90;" parent="1" vertex="1">
                    <mxGeometry x="262.5" y="220" width="20" height="20" as="geometry"/>
                </mxCell>
                <mxCell id="-FY1NBIczUNaVw4IfBYo-17" value="Visualization" style="text;align=center;fontStyle=0;verticalAlign=middle;spacingLeft=3;spacingRight=3;strokeColor=none;rotatable=0;points=[[0,0.5],[1,0.5]];portConstraint=eastwest;" parent="1" vertex="1">
                    <mxGeometry x="230" y="240" width="80" height="26" as="geometry"/>
                </mxCell>
                <mxCell id="-FY1NBIczUNaVw4IfBYo-20" style="edgeStyle=orthogonalEdgeStyle;rounded=0;orthogonalLoop=1;jettySize=auto;html=1;entryX=0.5;entryY=0;entryDx=0;entryDy=0;endArrow=none;endFill=0;" parent="1" source="-FY1NBIczUNaVw4IfBYo-21" target="-FY1NBIczUNaVw4IfBYo-8" edge="1">
                    <mxGeometry relative="1" as="geometry"/>
                </mxCell>
                <mxCell id="-FY1NBIczUNaVw4IfBYo-21" value="" style="shape=providedRequiredInterface;html=1;verticalLabelPosition=bottom;rotation=-90;" parent="1" vertex="1">
                    <mxGeometry x="625" y="320" width="20" height="20" as="geometry"/>
                </mxCell>
                <mxCell id="-FY1NBIczUNaVw4IfBYo-22" value="ElectronicHealthRecords" style="text;align=center;fontStyle=0;verticalAlign=middle;spacingLeft=3;spacingRight=3;strokeColor=none;rotatable=0;points=[[0,0.5],[1,0.5]];portConstraint=eastwest;" parent="1" vertex="1">
                    <mxGeometry x="595" y="340" width="80" height="26" as="geometry"/>
                </mxCell>
                <mxCell id="-FY1NBIczUNaVw4IfBYo-23" value="" style="sketch=0;pointerEvents=1;shadow=0;dashed=0;html=1;strokeColor=none;labelPosition=center;verticalLabelPosition=bottom;verticalAlign=top;align=center;fillColor=#515151;shape=mxgraph.mscae.enterprise.database_server" parent="1" vertex="1">
                    <mxGeometry x="278" y="650" width="38" height="50" as="geometry"/>
                </mxCell>
                <mxCell id="-FY1NBIczUNaVw4IfBYo-24" value="" style="sketch=0;pointerEvents=1;shadow=0;dashed=0;html=1;strokeColor=none;labelPosition=center;verticalLabelPosition=bottom;verticalAlign=top;align=center;fillColor=#515151;shape=mxgraph.mscae.enterprise.database_server" parent="1" vertex="1">
                    <mxGeometry x="288" y="744" width="38" height="50" as="geometry"/>
                </mxCell>
                <mxCell id="-FY1NBIczUNaVw4IfBYo-25" value="" style="sketch=0;pointerEvents=1;shadow=0;dashed=0;html=1;strokeColor=none;labelPosition=center;verticalLabelPosition=bottom;verticalAlign=top;align=center;fillColor=#515151;shape=mxgraph.mscae.system_center.central_administration_site_sql" parent="1" vertex="1">
                    <mxGeometry x="223" y="754" width="38" height="50" as="geometry"/>
                </mxCell>
                <mxCell id="-FY1NBIczUNaVw4IfBYo-26" value="" style="sketch=0;pointerEvents=1;shadow=0;dashed=0;html=1;strokeColor=none;labelPosition=center;verticalLabelPosition=bottom;verticalAlign=top;align=center;fillColor=#515151;shape=mxgraph.mscae.system_center.cloud_distribution_point" parent="1" vertex="1">
                    <mxGeometry x="138" y="754" width="46" height="50" as="geometry"/>
                </mxCell>
                <mxCell id="-FY1NBIczUNaVw4IfBYo-27" value="" style="sketch=0;pointerEvents=1;shadow=0;dashed=0;html=1;strokeColor=none;labelPosition=center;verticalLabelPosition=bottom;verticalAlign=top;align=center;fillColor=#515151;shape=mxgraph.mscae.system_center.distribution_point" parent="1" vertex="1">
                    <mxGeometry x="134" y="684" width="44" height="50" as="geometry"/>
                </mxCell>
                <mxCell id="-FY1NBIczUNaVw4IfBYo-28" value="" style="sketch=0;pointerEvents=1;shadow=0;dashed=0;html=1;strokeColor=none;labelPosition=center;verticalLabelPosition=bottom;verticalAlign=top;align=center;fillColor=#515151;shape=mxgraph.mscae.system_center.management_point" parent="1" vertex="1">
                    <mxGeometry x="214" y="684" width="48" height="50" as="geometry"/>
                </mxCell>
                <mxCell id="-FY1NBIczUNaVw4IfBYo-29" value="" style="sketch=0;pointerEvents=1;shadow=0;dashed=0;html=1;strokeColor=none;labelPosition=center;verticalLabelPosition=bottom;verticalAlign=top;align=center;fillColor=#515151;shape=mxgraph.mscae.system_center.primary_site" parent="1" vertex="1">
                    <mxGeometry x="625" y="490" width="38" height="50" as="geometry"/>
                </mxCell>
                <mxCell id="-FY1NBIczUNaVw4IfBYo-30" value="&amp;lt;&amp;lt;Experimentalpraxis&amp;gt;&amp;gt;" style="html=1;dashed=1;rounded=1;absoluteArcSize=1;arcSize=20;verticalAlign=top;align=left;spacingTop=20;spacingLeft=20;" parent="1" vertex="1">
                    <mxGeometry x="130" y="-560" width="506" height="230" as="geometry"/>
                </mxCell>
                <mxCell id="-FY1NBIczUNaVw4IfBYo-31" value="" style="group;resizeWidth=0;resizeHeight=0;" parent="-FY1NBIczUNaVw4IfBYo-30" vertex="1">
                    <mxGeometry width="80" height="20" relative="1" as="geometry">
                        <mxPoint x="30" y="-10" as="offset"/>
                    </mxGeometry>
                </mxCell>
                <mxCell id="-FY1NBIczUNaVw4IfBYo-32" value="" style="resizeWidth=0;resizeHeight=0;points=[[0,0],[0.5,0],[1,0]];" parent="-FY1NBIczUNaVw4IfBYo-31" vertex="1">
                    <mxGeometry width="20" height="20" relative="1" as="geometry">
                        <mxPoint as="offset"/>
                    </mxGeometry>
                </mxCell>
                <mxCell id="-FY1NBIczUNaVw4IfBYo-33" value="" style="resizeWidth=0;resizeHeight=0;points=[[0,0],[0.5,0],[1,0]];" parent="-FY1NBIczUNaVw4IfBYo-31" vertex="1">
                    <mxGeometry width="20" height="20" relative="1" as="geometry">
                        <mxPoint x="20" as="offset"/>
                    </mxGeometry>
                </mxCell>
                <mxCell id="-FY1NBIczUNaVw4IfBYo-34" value="" style="resizeWidth=0;resizeHeight=0;points=[[0,0],[0.5,0],[1,0]];" parent="-FY1NBIczUNaVw4IfBYo-31" vertex="1">
                    <mxGeometry width="20" height="20" relative="1" as="geometry">
                        <mxPoint x="40" as="offset"/>
                    </mxGeometry>
                </mxCell>
                <mxCell id="-FY1NBIczUNaVw4IfBYo-35" value="" style="resizeWidth=0;resizeHeight=0;points=[[0,0],[0.5,0],[1,0]];" parent="-FY1NBIczUNaVw4IfBYo-31" vertex="1">
                    <mxGeometry width="20" height="20" relative="1" as="geometry">
                        <mxPoint x="60" as="offset"/>
                    </mxGeometry>
                </mxCell>
                <mxCell id="-FY1NBIczUNaVw4IfBYo-36" value="" style="group;resizeWidth=0;resizeHeight=0;" parent="-FY1NBIczUNaVw4IfBYo-30" vertex="1">
                    <mxGeometry x="1" width="80" height="20" relative="1" as="geometry">
                        <mxPoint x="-110" y="-10" as="offset"/>
                    </mxGeometry>
                </mxCell>
                <mxCell id="-FY1NBIczUNaVw4IfBYo-37" value="" style="resizeWidth=0;resizeHeight=0;points=[[0,0],[0.5,0],[1,0]];" parent="-FY1NBIczUNaVw4IfBYo-36" vertex="1">
                    <mxGeometry width="20" height="20" relative="1" as="geometry">
                        <mxPoint as="offset"/>
                    </mxGeometry>
                </mxCell>
                <mxCell id="-FY1NBIczUNaVw4IfBYo-38" value="" style="resizeWidth=0;resizeHeight=0;points=[[0,0],[0.5,0],[1,0]];" parent="-FY1NBIczUNaVw4IfBYo-36" vertex="1">
                    <mxGeometry width="20" height="20" relative="1" as="geometry">
                        <mxPoint x="20" as="offset"/>
                    </mxGeometry>
                </mxCell>
                <mxCell id="-FY1NBIczUNaVw4IfBYo-39" value="" style="resizeWidth=0;resizeHeight=0;points=[[0,0],[0.5,0],[1,0]];" parent="-FY1NBIczUNaVw4IfBYo-36" vertex="1">
                    <mxGeometry width="20" height="20" relative="1" as="geometry">
                        <mxPoint x="40" as="offset"/>
                    </mxGeometry>
                </mxCell>
                <mxCell id="-FY1NBIczUNaVw4IfBYo-40" value="" style="resizeWidth=0;resizeHeight=0;points=[[0,0],[0.5,0],[1,0]];" parent="-FY1NBIczUNaVw4IfBYo-36" vertex="1">
                    <mxGeometry width="20" height="20" relative="1" as="geometry">
                        <mxPoint x="60" as="offset"/>
                    </mxGeometry>
                </mxCell>
                <mxCell id="-FY1NBIczUNaVw4IfBYo-41" value="" style="group;resizeWidth=0;resizeHeight=0;" parent="-FY1NBIczUNaVw4IfBYo-30" vertex="1">
                    <mxGeometry y="1" width="80" height="20" relative="1" as="geometry">
                        <mxPoint x="30" y="-10" as="offset"/>
                    </mxGeometry>
                </mxCell>
                <mxCell id="-FY1NBIczUNaVw4IfBYo-42" value="" style="resizeWidth=0;resizeHeight=0;points=[[0,1],[0.5,1],[1,1]];" parent="-FY1NBIczUNaVw4IfBYo-41" vertex="1">
                    <mxGeometry width="20" height="20" relative="1" as="geometry">
                        <mxPoint as="offset"/>
                    </mxGeometry>
                </mxCell>
                <mxCell id="-FY1NBIczUNaVw4IfBYo-43" value="" style="resizeWidth=0;resizeHeight=0;points=[[0,1],[0.5,1],[1,1]];" parent="-FY1NBIczUNaVw4IfBYo-41" vertex="1">
                    <mxGeometry width="20" height="20" relative="1" as="geometry">
                        <mxPoint x="20" as="offset"/>
                    </mxGeometry>
                </mxCell>
                <mxCell id="-FY1NBIczUNaVw4IfBYo-44" value="" style="resizeWidth=0;resizeHeight=0;points=[[0,1],[0.5,1],[1,1]];" parent="-FY1NBIczUNaVw4IfBYo-41" vertex="1">
                    <mxGeometry width="20" height="20" relative="1" as="geometry">
                        <mxPoint x="40" as="offset"/>
                    </mxGeometry>
                </mxCell>
                <mxCell id="-FY1NBIczUNaVw4IfBYo-45" value="" style="resizeWidth=0;resizeHeight=0;points=[[0,1],[0.5,1],[1,1]];" parent="-FY1NBIczUNaVw4IfBYo-41" vertex="1">
                    <mxGeometry width="20" height="20" relative="1" as="geometry">
                        <mxPoint x="60" as="offset"/>
                    </mxGeometry>
                </mxCell>
                <mxCell id="-FY1NBIczUNaVw4IfBYo-46" value="" style="group;resizeWidth=0;resizeHeight=0;" parent="-FY1NBIczUNaVw4IfBYo-30" vertex="1">
                    <mxGeometry x="1" y="1" width="80" height="20" relative="1" as="geometry">
                        <mxPoint x="-110" y="-10" as="offset"/>
                    </mxGeometry>
                </mxCell>
                <mxCell id="-FY1NBIczUNaVw4IfBYo-47" value="" style="resizeWidth=0;resizeHeight=0;points=[[0,1],[0.5,1],[1,1]];" parent="-FY1NBIczUNaVw4IfBYo-46" vertex="1">
                    <mxGeometry width="20" height="20" relative="1" as="geometry">
                        <mxPoint as="offset"/>
                    </mxGeometry>
                </mxCell>
                <mxCell id="-FY1NBIczUNaVw4IfBYo-48" value="" style="resizeWidth=0;resizeHeight=0;points=[[0,1],[0.5,1],[1,1]];" parent="-FY1NBIczUNaVw4IfBYo-46" vertex="1">
                    <mxGeometry width="20" height="20" relative="1" as="geometry">
                        <mxPoint x="20" as="offset"/>
                    </mxGeometry>
                </mxCell>
                <mxCell id="-FY1NBIczUNaVw4IfBYo-49" value="" style="resizeWidth=0;resizeHeight=0;points=[[0,1],[0.5,1],[1,1]];" parent="-FY1NBIczUNaVw4IfBYo-46" vertex="1">
                    <mxGeometry width="20" height="20" relative="1" as="geometry">
                        <mxPoint x="40" as="offset"/>
                    </mxGeometry>
                </mxCell>
                <mxCell id="-FY1NBIczUNaVw4IfBYo-50" value="" style="resizeWidth=0;resizeHeight=0;points=[[0,1],[0.5,1],[1,1]];" parent="-FY1NBIczUNaVw4IfBYo-46" vertex="1">
                    <mxGeometry width="20" height="20" relative="1" as="geometry">
                        <mxPoint x="60" as="offset"/>
                    </mxGeometry>
                </mxCell>
                <mxCell id="-FY1NBIczUNaVw4IfBYo-51" value="" style="group;resizeWidth=0;resizeHeight=0;" parent="-FY1NBIczUNaVw4IfBYo-30" vertex="1">
                    <mxGeometry width="20" height="80" relative="1" as="geometry">
                        <mxPoint x="-10" y="30" as="offset"/>
                    </mxGeometry>
                </mxCell>
                <mxCell id="-FY1NBIczUNaVw4IfBYo-52" value="" style="resizeWidth=0;resizeHeight=0;points=[[0,0],[0.5,0],[1,0]];" parent="-FY1NBIczUNaVw4IfBYo-51" vertex="1">
                    <mxGeometry width="20" height="20" relative="1" as="geometry">
                        <mxPoint as="offset"/>
                    </mxGeometry>
                </mxCell>
                <mxCell id="-FY1NBIczUNaVw4IfBYo-53" value="" style="resizeWidth=0;resizeHeight=0;points=[[0,0],[0.5,0],[1,0]];" parent="-FY1NBIczUNaVw4IfBYo-51" vertex="1">
                    <mxGeometry width="20" height="20" relative="1" as="geometry">
                        <mxPoint y="20" as="offset"/>
                    </mxGeometry>
                </mxCell>
                <mxCell id="-FY1NBIczUNaVw4IfBYo-54" value="" style="resizeWidth=0;resizeHeight=0;points=[[0,0],[0.5,0],[1,0]];" parent="-FY1NBIczUNaVw4IfBYo-51" vertex="1">
                    <mxGeometry width="20" height="20" relative="1" as="geometry">
                        <mxPoint y="40" as="offset"/>
                    </mxGeometry>
                </mxCell>
                <mxCell id="-FY1NBIczUNaVw4IfBYo-55" value="" style="resizeWidth=0;resizeHeight=0;points=[[0,0],[0.5,0],[1,0]];" parent="-FY1NBIczUNaVw4IfBYo-51" vertex="1">
                    <mxGeometry width="20" height="20" relative="1" as="geometry">
                        <mxPoint y="60" as="offset"/>
                    </mxGeometry>
                </mxCell>
                <mxCell id="-FY1NBIczUNaVw4IfBYo-56" value="" style="group;resizeWidth=0;resizeHeight=0;" parent="-FY1NBIczUNaVw4IfBYo-30" vertex="1">
                    <mxGeometry y="1" width="20" height="80" relative="1" as="geometry">
                        <mxPoint x="-10" y="-110" as="offset"/>
                    </mxGeometry>
                </mxCell>
                <mxCell id="-FY1NBIczUNaVw4IfBYo-57" value="" style="resizeWidth=0;resizeHeight=0;points=[[0,0],[0.5,0],[1,0]];" parent="-FY1NBIczUNaVw4IfBYo-56" vertex="1">
                    <mxGeometry width="20" height="20" relative="1" as="geometry">
                        <mxPoint as="offset"/>
                    </mxGeometry>
                </mxCell>
                <mxCell id="-FY1NBIczUNaVw4IfBYo-58" value="" style="resizeWidth=0;resizeHeight=0;points=[[0,0],[0.5,0],[1,0]];" parent="-FY1NBIczUNaVw4IfBYo-56" vertex="1">
                    <mxGeometry width="20" height="20" relative="1" as="geometry">
                        <mxPoint y="20" as="offset"/>
                    </mxGeometry>
                </mxCell>
                <mxCell id="-FY1NBIczUNaVw4IfBYo-59" value="" style="resizeWidth=0;resizeHeight=0;points=[[0,0],[0.5,0],[1,0]];" parent="-FY1NBIczUNaVw4IfBYo-56" vertex="1">
                    <mxGeometry width="20" height="20" relative="1" as="geometry">
                        <mxPoint y="40" as="offset"/>
                    </mxGeometry>
                </mxCell>
                <mxCell id="-FY1NBIczUNaVw4IfBYo-60" value="" style="resizeWidth=0;resizeHeight=0;points=[[0,0],[0.5,0],[1,0]];" parent="-FY1NBIczUNaVw4IfBYo-56" vertex="1">
                    <mxGeometry width="20" height="20" relative="1" as="geometry">
                        <mxPoint y="60" as="offset"/>
                    </mxGeometry>
                </mxCell>
                <mxCell id="-FY1NBIczUNaVw4IfBYo-61" value="" style="group;resizeWidth=0;resizeHeight=0;" parent="-FY1NBIczUNaVw4IfBYo-30" vertex="1">
                    <mxGeometry x="1" width="20" height="80" relative="1" as="geometry">
                        <mxPoint x="-10" y="30" as="offset"/>
                    </mxGeometry>
                </mxCell>
                <mxCell id="-FY1NBIczUNaVw4IfBYo-62" value="" style="resizeWidth=0;resizeHeight=0;points=[[0,0],[0.5,0],[1,0]];" parent="-FY1NBIczUNaVw4IfBYo-61" vertex="1">
                    <mxGeometry width="20" height="20" relative="1" as="geometry">
                        <mxPoint as="offset"/>
                    </mxGeometry>
                </mxCell>
                <mxCell id="-FY1NBIczUNaVw4IfBYo-63" value="" style="resizeWidth=0;resizeHeight=0;points=[[0,0],[0.5,0],[1,0]];" parent="-FY1NBIczUNaVw4IfBYo-61" vertex="1">
                    <mxGeometry width="20" height="20" relative="1" as="geometry">
                        <mxPoint y="20" as="offset"/>
                    </mxGeometry>
                </mxCell>
                <mxCell id="-FY1NBIczUNaVw4IfBYo-64" value="" style="resizeWidth=0;resizeHeight=0;points=[[0,0],[0.5,0],[1,0]];" parent="-FY1NBIczUNaVw4IfBYo-61" vertex="1">
                    <mxGeometry width="20" height="20" relative="1" as="geometry">
                        <mxPoint y="40" as="offset"/>
                    </mxGeometry>
                </mxCell>
                <mxCell id="-FY1NBIczUNaVw4IfBYo-65" value="" style="resizeWidth=0;resizeHeight=0;points=[[0,0],[0.5,0],[1,0]];" parent="-FY1NBIczUNaVw4IfBYo-61" vertex="1">
                    <mxGeometry width="20" height="20" relative="1" as="geometry">
                        <mxPoint y="60" as="offset"/>
                    </mxGeometry>
                </mxCell>
                <mxCell id="-FY1NBIczUNaVw4IfBYo-66" value="" style="group;resizeWidth=0;resizeHeight=0;" parent="-FY1NBIczUNaVw4IfBYo-30" vertex="1">
                    <mxGeometry x="1" y="1" width="20" height="80" relative="1" as="geometry">
                        <mxPoint x="-10" y="-110" as="offset"/>
                    </mxGeometry>
                </mxCell>
                <mxCell id="-FY1NBIczUNaVw4IfBYo-67" value="" style="resizeWidth=0;resizeHeight=0;points=[[0,0],[0.5,0],[1,0]];" parent="-FY1NBIczUNaVw4IfBYo-66" vertex="1">
                    <mxGeometry width="20" height="20" relative="1" as="geometry">
                        <mxPoint as="offset"/>
                    </mxGeometry>
                </mxCell>
                <mxCell id="-FY1NBIczUNaVw4IfBYo-68" value="" style="resizeWidth=0;resizeHeight=0;points=[[0,0],[0.5,0],[1,0]];" parent="-FY1NBIczUNaVw4IfBYo-66" vertex="1">
                    <mxGeometry width="20" height="20" relative="1" as="geometry">
                        <mxPoint y="20" as="offset"/>
                    </mxGeometry>
                </mxCell>
                <mxCell id="-FY1NBIczUNaVw4IfBYo-69" value="" style="resizeWidth=0;resizeHeight=0;points=[[0,0],[0.5,0],[1,0]];" parent="-FY1NBIczUNaVw4IfBYo-66" vertex="1">
                    <mxGeometry width="20" height="20" relative="1" as="geometry">
                        <mxPoint y="40" as="offset"/>
                    </mxGeometry>
                </mxCell>
                <mxCell id="-FY1NBIczUNaVw4IfBYo-70" value="" style="resizeWidth=0;resizeHeight=0;points=[[0,0],[0.5,0],[1,0]];" parent="-FY1NBIczUNaVw4IfBYo-66" vertex="1">
                    <mxGeometry width="20" height="20" relative="1" as="geometry">
                        <mxPoint y="60" as="offset"/>
                    </mxGeometry>
                </mxCell>
                <mxCell id="-FY1NBIczUNaVw4IfBYo-84" value="" style="aspect=fixed;html=1;points=[];align=center;image;fontSize=12;image=img/lib/azure2/general/Process_Explorer.svg;" parent="-FY1NBIczUNaVw4IfBYo-30" vertex="1">
                    <mxGeometry x="90" y="80" width="61.76" height="60" as="geometry"/>
                </mxCell>
                <mxCell id="-FY1NBIczUNaVw4IfBYo-85" value="" style="aspect=fixed;html=1;points=[];align=center;image;fontSize=12;image=img/lib/azure2/general/Process_Explorer.svg;" parent="-FY1NBIczUNaVw4IfBYo-30" vertex="1">
                    <mxGeometry x="310" y="79" width="61.76" height="60" as="geometry"/>
                </mxCell>
                <mxCell id="-FY1NBIczUNaVw4IfBYo-72" value="" style="edgeStyle=none;html=1;" parent="1" source="-FY1NBIczUNaVw4IfBYo-71" target="-FY1NBIczUNaVw4IfBYo-35" edge="1">
                    <mxGeometry relative="1" as="geometry"/>
                </mxCell>
                <mxCell id="-FY1NBIczUNaVw4IfBYo-71" value="Arzt/Ärztin" style="shape=umlActor;verticalLabelPosition=bottom;verticalAlign=top;html=1;" parent="1" vertex="1">
                    <mxGeometry x="215" y="-730" width="30" height="60" as="geometry"/>
                </mxCell>
                <mxCell id="-FY1NBIczUNaVw4IfBYo-80" style="edgeStyle=none;html=1;" parent="1" source="-FY1NBIczUNaVw4IfBYo-74" edge="1">
                    <mxGeometry relative="1" as="geometry">
                        <mxPoint x="558" y="-570" as="targetPoint"/>
                    </mxGeometry>
                </mxCell>
                <mxCell id="-FY1NBIczUNaVw4IfBYo-74" value="MFA" style="shape=umlActor;verticalLabelPosition=bottom;verticalAlign=top;html=1;" parent="1" vertex="1">
                    <mxGeometry x="544" y="-730" width="30" height="60" as="geometry"/>
                </mxCell>
                <mxCell id="-FY1NBIczUNaVw4IfBYo-81" style="edgeStyle=none;html=1;" parent="1" source="-FY1NBIczUNaVw4IfBYo-75" edge="1">
                    <mxGeometry relative="1" as="geometry">
                        <mxPoint x="650" y="-428" as="targetPoint"/>
                    </mxGeometry>
                </mxCell>
                <mxCell id="-FY1NBIczUNaVw4IfBYo-75" value="IT-Admin" style="shape=umlActor;verticalLabelPosition=bottom;verticalAlign=top;html=1;" parent="1" vertex="1">
                    <mxGeometry x="780" y="-455" width="30" height="60" as="geometry"/>
                </mxCell>
                <mxCell id="-FY1NBIczUNaVw4IfBYo-82" value="" style="shape=ellipse;html=1;dashed=0;whitespace=wrap;perimeter=ellipsePerimeter;" parent="1" vertex="1">
                    <mxGeometry x="70" y="-270" width="30" height="30" as="geometry"/>
                </mxCell>
                <mxCell id="-FY1NBIczUNaVw4IfBYo-83" value="" style="shape=ellipse;html=1;dashed=0;whitespace=wrap;aspect=fixed;perimeter=ellipsePerimeter;" parent="1" vertex="1">
                    <mxGeometry x="373" y="-260" width="60" height="60" as="geometry"/>
                </mxCell>
                <mxCell id="-FY1NBIczUNaVw4IfBYo-86" value="" style="shape=internalStorage;whiteSpace=wrap;html=1;backgroundOutline=1;" parent="1" vertex="1">
                    <mxGeometry x="202.5" y="-270" width="80" height="80" as="geometry"/>
                </mxCell>
                <mxCell id="-FY1NBIczUNaVw4IfBYo-87" value="" style="shape=mxgraph.bpmn.data;labelPosition=center;verticalLabelPosition=bottom;align=center;verticalAlign=top;whiteSpace=wrap;size=15;html=1;bpmnTransferType=none;isCollection=1;" parent="1" vertex="1">
                    <mxGeometry x="420" y="-380" width="40" height="60" as="geometry"/>
                </mxCell>
                <mxCell id="-FY1NBIczUNaVw4IfBYo-88" value="" style="shape=mxgraph.bpmn.data;labelPosition=center;verticalLabelPosition=bottom;align=center;verticalAlign=top;whiteSpace=wrap;size=15;html=1;bpmnTransferType=input;" parent="1" vertex="1">
                    <mxGeometry x="420" y="-380" width="40" height="60" as="geometry"/>
                </mxCell>
                <mxCell id="-FY1NBIczUNaVw4IfBYo-89" value="" style="shape=mxgraph.bpmn.data;labelPosition=center;verticalLabelPosition=bottom;align=center;verticalAlign=top;whiteSpace=wrap;size=15;html=1;bpmnTransferType=input;isCollection=1;" parent="1" vertex="1">
                    <mxGeometry x="420" y="-380" width="40" height="60" as="geometry"/>
                </mxCell>
                <mxCell id="-FY1NBIczUNaVw4IfBYo-90" value="" style="shape=mxgraph.bpmn.data;labelPosition=center;verticalLabelPosition=bottom;align=center;verticalAlign=top;whiteSpace=wrap;size=15;html=1;bpmnTransferType=output;" parent="1" vertex="1">
                    <mxGeometry x="420" y="-380" width="40" height="60" as="geometry"/>
                </mxCell>
                <mxCell id="-FY1NBIczUNaVw4IfBYo-91" value="" style="shape=mxgraph.bpmn.data;labelPosition=center;verticalLabelPosition=bottom;align=center;verticalAlign=top;whiteSpace=wrap;size=15;html=1;bpmnTransferType=output;isCollection=1;" parent="1" vertex="1">
                    <mxGeometry x="420" y="-380" width="40" height="60" as="geometry"/>
                </mxCell>
                <mxCell id="-FY1NBIczUNaVw4IfBYo-92" value="" style="shape=mxgraph.bpmn.data;labelPosition=center;verticalLabelPosition=bottom;align=center;verticalAlign=top;whiteSpace=wrap;size=15;html=1;bpmnTransferType=output;" parent="1" vertex="1">
                    <mxGeometry x="420" y="-380" width="40" height="60" as="geometry"/>
                </mxCell>
                <mxCell id="-FY1NBIczUNaVw4IfBYo-93" value="" style="shape=datastore;whiteSpace=wrap;html=1;labelPosition=center;verticalLabelPosition=bottom;align=center;verticalAlign=top;" parent="1" vertex="1">
                    <mxGeometry x="262.5" y="-250" width="100" height="100" as="geometry"/>
                </mxCell>
                <mxCell id="-FY1NBIczUNaVw4IfBYo-94" value="" style="shape=mxgraph.bpmn.conversation;perimeter=hexagonPerimeter2;whiteSpace=wrap;html=1;aspect=fixed;bpmnConversationType=conv;isLoopSub=1;" parent="1" vertex="1">
                    <mxGeometry x="212.5" y="-150" width="70" height="60" as="geometry"/>
                </mxCell>
                <mxCell id="-FY1NBIczUNaVw4IfBYo-97" value="" style="shape=mxgraph.bpmn.swimlane;html=1;startSize=20;horizontal=1;swimlaneLine=1;collapsible=0;fontStyle=0;strokeWidth=2;swimlaneFillColor=#ffffff;isCollection=1;whiteSpace=wrap;" parent="1" vertex="1">
                    <mxGeometry x="110" y="-960" width="260" height="190" as="geometry"/>
                </mxCell>
            </root>
        </mxGraphModel>
    </diagram>
</mxfile>